<svg width="165" height="99" viewBox="0 0 165 99" fill="none" xmlns="http://www.w3.org/2000/svg">
<path d="M26.651 63.444C24.6037 63.444 22.7043 63.111 20.953 62.445C19.2263 61.779 17.7217 60.8417 16.439 59.633C15.181 58.4243 14.1943 57.006 13.479 55.378C12.7883 53.75 12.443 51.974 12.443 50.05C12.443 48.126 12.7883 46.35 13.479 44.722C14.1943 43.094 15.1933 41.6757 16.476 40.467C17.7587 39.2583 19.2633 38.321 20.99 37.655C22.7167 36.989 24.5913 36.656 26.614 36.656C28.6613 36.656 30.536 36.989 32.238 37.655C33.9647 38.321 35.457 39.2583 36.715 40.467C37.9977 41.6757 38.9967 43.094 39.712 44.722C40.4273 46.3253 40.785 48.1013 40.785 50.05C40.785 51.974 40.4273 53.7623 39.712 55.415C38.9967 57.043 37.9977 58.4613 36.715 59.67C35.457 60.854 33.9647 61.779 32.238 62.445C30.536 63.111 28.6737 63.444 26.651 63.444ZM26.614 58.338C27.7733 58.338 28.834 58.1407 29.796 57.746C30.7827 57.3513 31.646 56.784 32.386 56.044C33.126 55.304 33.6933 54.4283 34.088 53.417C34.5073 52.4057 34.717 51.2833 34.717 50.05C34.717 48.8167 34.5073 47.6943 34.088 46.683C33.6933 45.6717 33.126 44.796 32.386 44.056C31.6707 43.316 30.8197 42.7487 29.833 42.354C28.8463 41.9593 27.7733 41.762 26.614 41.762C25.4547 41.762 24.3817 41.9593 23.395 42.354C22.433 42.7487 21.582 43.316 20.842 44.056C20.102 44.796 19.5223 45.6717 19.103 46.683C18.7083 47.6943 18.511 48.8167 18.511 50.05C18.511 51.2587 18.7083 52.381 19.103 53.417C19.5223 54.4283 20.0897 55.304 20.805 56.044C21.545 56.784 22.4083 57.3513 23.395 57.746C24.3817 58.1407 25.4547 58.338 26.614 58.338ZM57.8698 63.444C55.8224 63.444 53.9231 63.111 52.1718 62.445C50.4451 61.779 48.9404 60.8417 47.6577 59.633C46.3998 58.4243 45.4131 57.006 44.6978 55.378C44.0071 53.75 43.6618 51.974 43.6618 50.05C43.6618 48.126 44.0071 46.35 44.6978 44.722C45.4131 43.094 46.4121 41.6757 47.6948 40.467C48.9774 39.2583 50.4821 38.321 52.2088 37.655C53.9354 36.989 55.8101 36.656 57.8328 36.656C59.8801 36.656 61.7547 36.989 63.4568 37.655C65.1834 38.321 66.6758 39.2583 67.9338 40.467C69.2164 41.6757 70.2154 43.094 70.9308 44.722C71.6461 46.3253 72.0038 48.1013 72.0038 50.05C72.0038 51.974 71.6461 53.7623 70.9308 55.415C70.2154 57.043 69.2164 58.4613 67.9338 59.67C66.6758 60.854 65.1834 61.779 63.4568 62.445C61.7547 63.111 59.8924 63.444 57.8698 63.444ZM57.8328 58.338C58.9921 58.338 60.0528 58.1407 61.0148 57.746C62.0014 57.3513 62.8648 56.784 63.6048 56.044C64.3448 55.304 64.9121 54.4283 65.3068 53.417C65.7261 52.4057 65.9358 51.2833 65.9358 50.05C65.9358 48.8167 65.7261 47.6943 65.3068 46.683C64.9121 45.6717 64.3448 44.796 63.6048 44.056C62.8894 43.316 62.0384 42.7487 61.0518 42.354C60.0651 41.9593 58.9921 41.762 57.8328 41.762C56.6734 41.762 55.6004 41.9593 54.6138 42.354C53.6518 42.7487 52.8008 43.316 52.0608 44.056C51.3208 44.796 50.7411 45.6717 50.3218 46.683C49.9271 47.6943 49.7298 48.8167 49.7298 50.05C49.7298 51.2587 49.9271 52.381 50.3218 53.417C50.7411 54.4283 51.3084 55.304 52.0238 56.044C52.7638 56.784 53.6271 57.3513 54.6138 57.746C55.6004 58.1407 56.6734 58.338 57.8328 58.338ZM86.987 63V37.1H91.945L102.971 55.378H100.344L111.185 37.1H116.106L116.18 63H110.556L110.519 45.721H111.555L102.897 60.262H100.196L91.353 45.721H92.611V63H86.987ZM134.128 63V59.115L133.758 58.264V51.308C133.758 50.0747 133.376 49.1127 132.611 48.422C131.871 47.7313 130.724 47.386 129.17 47.386C128.109 47.386 127.061 47.5587 126.025 47.904C125.014 48.2247 124.15 48.6687 123.435 49.236L121.363 45.203C122.448 44.4383 123.756 43.8463 125.285 43.427C126.814 43.0077 128.368 42.798 129.947 42.798C132.981 42.798 135.337 43.5133 137.014 44.944C138.691 46.3747 139.53 48.607 139.53 51.641V63H134.128ZM128.06 63.296C126.506 63.296 125.174 63.037 124.064 62.519C122.954 61.9763 122.103 61.2487 121.511 60.336C120.919 59.4233 120.623 58.3997 120.623 57.265C120.623 56.081 120.907 55.045 121.474 54.157C122.066 53.269 122.991 52.5783 124.249 52.085C125.507 51.567 127.147 51.308 129.17 51.308H134.461V54.675H129.799C128.442 54.675 127.505 54.897 126.987 55.341C126.494 55.785 126.247 56.34 126.247 57.006C126.247 57.746 126.531 58.338 127.098 58.782C127.69 59.2013 128.492 59.411 129.503 59.411C130.465 59.411 131.328 59.189 132.093 58.745C132.858 58.2763 133.413 57.598 133.758 56.71L134.646 59.374C134.227 60.6567 133.462 61.631 132.352 62.297C131.242 62.963 129.811 63.296 128.06 63.296ZM144.754 63V35.546H150.526V63H144.754ZM155.883 63V35.546H161.655V63H155.883Z" fill="#333333"/>
<path fill-rule="evenodd" clip-rule="evenodd" d="M5 5H94V22H99V5V0H94H5H0V5V94V99H5H94H99V94V76H94V94H5V5Z" fill="#333333"/>
</svg>
